<?xml version="1.0" encoding="utf-8"?>
<!-- Generator: Adobe Illustrator 16.0.0, SVG Export Plug-In . SVG Version: 6.00 Build 0)  -->
<!DOCTYPE svg PUBLIC "-//W3C//DTD SVG 1.1//EN" "http://www.w3.org/Graphics/SVG/1.1/DTD/svg11.dtd">
<svg version="1.1" xmlns="http://www.w3.org/2000/svg" xmlns:xlink="http://www.w3.org/1999/xlink" x="0px" y="0px" viewBox="0 0 72 72" enable-background="new 0 0 72 72" xml:space="preserve">
<g id="waves_fill" display="none">
</g>
<g id="Layer_7">
</g>
<g id="Layer_1">
</g>
<g id="Layer_2">
	<g>
		<line fill="#B76411" x1="22.879" y1="54.424" x2="20.619" y2="54.424"/>
		<line fill="#B76411" x1="26.266" y1="46.912" x2="24.008" y2="46.912"/>
		<line fill="#B76411" x1="30.352" y1="36.812" x2="28.094" y2="36.812"/>
		<line fill="#B76411" x1="46.182" y1="42.158" x2="25.934" y2="42.158"/>
		<path fill="#FFFFFF" d="M41.645,31.582V14.654h1.283c0.59,0,1.066-0.479,1.066-1.068s-0.477-1.067-1.066-1.067H29.074
			c-0.59,0-1.068,0.478-1.068,1.067s0.479,1.068,1.068,1.068h1.281v16.928L19.014,58.026c0,0.803,0.65,1.455,1.455,1.455h31.062
			c0.803,0,1.455-0.652,1.455-1.455L41.645,31.582z"/>
		<path fill="#11B8C9" d="M24.947,44.193l-5.934,13.833c0,0.803,0.65,1.455,1.455,1.455h31.062c0.803,0,1.455-0.652,1.455-1.455
			l-5.934-13.833H24.947z"/>
		<path opacity="0.1" d="M47.053,44.193h-6.379l6.27,14.62c0,0.239-0.053,0.464-0.146,0.668h4.734c0.803,0,1.455-0.652,1.455-1.455
			L47.053,44.193z"/>
		<path opacity="0.1" d="M37.105,32.293h4.643l-0.104-0.244V15.121h1.283c0.59,0,1.066-0.478,1.066-1.068
			c0-0.59-0.477-1.067-1.066-1.067h-5.895c0.045,0.404,0.072,0.82,0.072,1.254V32.293z"/>
		<path opacity="0.1" fill="#F5FFFF" d="M22.121,58.026l11.344-26.444V14.654h-1.283c-0.59,0-1.068-0.479-1.068-1.068
			s0.479-1.067,1.068-1.067h-2.072c-0.59,0-1.068,0.478-1.068,1.067s0.479,1.068,1.068,1.068h1.283v16.928L20.051,58.026
			c0,0.803,0.65,1.455,1.455,1.455h2.072C22.773,59.481,22.121,58.829,22.121,58.026z"/>
		<g>
			<defs>
				<path id="SVGID_278_" d="M41.645,31.582V14.654h1.283c0.59,0,1.066-0.479,1.066-1.068s-0.477-1.067-1.066-1.067H29.074
					c-0.59,0-1.068,0.478-1.068,1.067s0.479,1.068,1.068,1.068h1.281v16.928L19.014,58.026c0,0.803,0.65,1.455,1.455,1.455h31.062
					c0.803,0,1.455-0.652,1.455-1.455L41.645,31.582z"/>
			</defs>
			<clipPath id="SVGID_1_">
				<use xlink:href="#SVGID_278_"  overflow="visible"/>
			</clipPath>
			<g clip-path="url(#SVGID_1_)">
				<g opacity="0.2">
					<path fill="#F5FFFF" d="M30.742,39.402h-4.33c-0.287,0-0.518-0.232-0.518-0.519s0.23-0.518,0.518-0.518h4.33
						c0.287,0,0.518,0.231,0.518,0.518S31.029,39.402,30.742,39.402z"/>
				</g>
				<g opacity="0.2">
					<path fill="#F5FFFF" d="M28.67,44.711h-4.33c-0.287,0-0.518-0.231-0.518-0.518s0.23-0.518,0.518-0.518h4.33
						c0.287,0,0.518,0.231,0.518,0.518S28.957,44.711,28.67,44.711z"/>
				</g>
				<g opacity="0.2">
					<path fill="#F5FFFF" d="M26.598,49.762h-4.33c-0.285,0-0.518-0.232-0.518-0.518c0-0.287,0.232-0.519,0.518-0.519h4.33
						c0.287,0,0.52,0.231,0.52,0.519C27.117,49.529,26.885,49.762,26.598,49.762z"/>
				</g>
				<g opacity="0.2">
					<path fill="#F5FFFF" d="M24.525,54.941h-4.33c-0.285,0-0.518-0.232-0.518-0.518c0-0.287,0.232-0.52,0.518-0.52h4.33
						c0.287,0,0.52,0.232,0.52,0.52C25.045,54.709,24.812,54.941,24.525,54.941z"/>
				</g>
			</g>
		</g>
	</g>
</g>
<g id="Layer_6" display="none">
</g>
<g id="Enter_your_city">
</g>
<g id="De">
</g>
<g id="Dehradun">
</g>
</svg>
